<svg width="195" height="92" viewBox="0 0 195 92" fill="none" xmlns="http://www.w3.org/2000/svg">
<path d="M16.9004 60.3486H15.4766V57H6.54688V60.3486H5.12305V55.6465H6.11621C7.01855 54.1289 7.78906 52.2832 8.42773 50.1094C9.07227 47.9355 9.42969 45.9492 9.5 44.1504H15.2744V55.6465H16.9004V60.3486ZM13.7803 55.6465V45.4951H10.8535C10.748 46.9131 10.3936 48.6182 9.79004 50.6104C9.18652 52.5967 8.4834 54.2754 7.68066 55.6465H13.7803ZM23.8525 55.5938L24.125 54.7764L24.5029 53.7393L27.1133 47.3848H28.9678V57H27.6758V49.0459L27.5 49.5557L26.9902 50.9004L24.5029 57H23.2812L20.7939 50.8828C20.4834 50.0977 20.2695 49.4854 20.1523 49.0459V57H18.8516V47.3848H20.6357L23.1582 53.4932C23.4102 54.1377 23.6416 54.8379 23.8525 55.5938ZM33.459 47.3672V53.4756L33.3975 55.0752L33.3711 55.5762L38.583 47.3672H40.4023V57H39.04V51.1113L39.0664 49.9512L39.1104 48.8086L33.9072 57H32.0879V47.3672H33.459ZM49.9912 48.6152H46.8623V57H45.4033V48.6152H42.3096V47.3672H49.9912V48.6152ZM56.3809 57.1758C55.7539 57.1758 55.1797 57.0615 54.6582 56.833C54.1426 56.5986 53.709 56.2412 53.3574 55.7607H53.252C53.3223 56.3232 53.3574 56.8564 53.3574 57.3604V61.3242H51.8984V47.3672H53.085L53.2871 48.6855H53.3574C53.7324 48.1582 54.1689 47.7773 54.667 47.543C55.165 47.3086 55.7363 47.1914 56.3809 47.1914C57.6582 47.1914 58.6426 47.6279 59.334 48.501C60.0312 49.374 60.3799 50.5986 60.3799 52.1748C60.3799 53.7568 60.0254 54.9873 59.3164 55.8662C58.6133 56.7393 57.6348 57.1758 56.3809 57.1758ZM56.1699 48.4307C55.1855 48.4307 54.4736 48.7031 54.0342 49.248C53.5947 49.793 53.3691 50.6602 53.3574 51.8496V52.1748C53.3574 53.5283 53.583 54.498 54.0342 55.084C54.4854 55.6641 55.209 55.9541 56.2051 55.9541C57.0371 55.9541 57.6875 55.6172 58.1562 54.9434C58.6309 54.2695 58.8682 53.3408 58.8682 52.1572C58.8682 50.9561 58.6309 50.0361 58.1562 49.3975C57.6875 48.7529 57.0254 48.4307 56.1699 48.4307ZM71.252 52.1748C71.252 53.7451 70.8564 54.9727 70.0654 55.8574C69.2744 56.7363 68.1816 57.1758 66.7871 57.1758C65.9258 57.1758 65.1611 56.9736 64.4932 56.5693C63.8252 56.165 63.3096 55.585 62.9463 54.8291C62.583 54.0732 62.4014 53.1885 62.4014 52.1748C62.4014 50.6045 62.7939 49.3828 63.5791 48.5098C64.3643 47.6309 65.4541 47.1914 66.8486 47.1914C68.1963 47.1914 69.2656 47.6396 70.0566 48.5361C70.8535 49.4326 71.252 50.6455 71.252 52.1748ZM63.9131 52.1748C63.9131 53.4053 64.1592 54.3428 64.6514 54.9873C65.1436 55.6318 65.8672 55.9541 66.8223 55.9541C67.7773 55.9541 68.501 55.6348 68.9932 54.9961C69.4912 54.3516 69.7402 53.4111 69.7402 52.1748C69.7402 50.9502 69.4912 50.0215 68.9932 49.3887C68.501 48.75 67.7715 48.4307 66.8047 48.4307C65.8496 48.4307 65.1289 48.7441 64.6426 49.3711C64.1562 49.998 63.9131 50.9326 63.9131 52.1748ZM81.6318 49.7842C81.6318 50.4111 81.4502 50.8887 81.0869 51.2168C80.7295 51.5391 80.2256 51.7559 79.5752 51.8672V51.9463C80.3955 52.0576 80.9932 52.2979 81.3682 52.667C81.749 53.0361 81.9395 53.5459 81.9395 54.1963C81.9395 55.0928 81.6084 55.7842 80.9463 56.2705C80.29 56.7568 79.3291 57 78.0635 57H73.8184V47.3672H78.0459C80.4365 47.3672 81.6318 48.1729 81.6318 49.7842ZM80.4805 54.0996C80.4805 53.5781 80.2812 53.2002 79.8828 52.9658C79.4902 52.7256 78.8369 52.6055 77.9229 52.6055H75.2773V55.7783H77.958C79.6396 55.7783 80.4805 55.2188 80.4805 54.0996ZM80.208 49.9248C80.208 49.4561 80.0264 49.125 79.6631 48.9316C79.3057 48.7324 78.7607 48.6328 78.0283 48.6328H75.2773V51.3486H77.7471C78.6494 51.3486 79.2852 51.2373 79.6543 51.0146C80.0234 50.792 80.208 50.4287 80.208 49.9248ZM87.916 57.1758C86.5215 57.1758 85.4404 56.748 84.6729 55.8926C83.9111 55.0312 83.5303 53.8154 83.5303 52.2451C83.5303 50.6338 83.917 49.3887 84.6904 48.5098C85.4697 47.6309 86.5771 47.1914 88.0127 47.1914C88.4756 47.1914 88.9385 47.2412 89.4014 47.3408C89.8643 47.4404 90.2275 47.5576 90.4912 47.6924L90.043 48.9316C89.7207 48.8027 89.3691 48.6973 88.9883 48.6152C88.6074 48.5273 88.2705 48.4834 87.9775 48.4834C86.0205 48.4834 85.042 49.7314 85.042 52.2275C85.042 53.4111 85.2793 54.3193 85.7539 54.9521C86.2344 55.585 86.9434 55.9014 87.8809 55.9014C88.6836 55.9014 89.5068 55.7285 90.3506 55.3828V56.6748C89.7061 57.0088 88.8945 57.1758 87.916 57.1758ZM98.2607 47.3672H99.8604L95.7031 52.0166L100.203 57H98.498L94.1035 52.1221V57H92.6445V47.3672H94.1035V52.0518L98.2607 47.3672ZM110.311 52.1748C110.311 53.7451 109.915 54.9727 109.124 55.8574C108.333 56.7363 107.24 57.1758 105.846 57.1758C104.984 57.1758 104.22 56.9736 103.552 56.5693C102.884 56.165 102.368 55.585 102.005 54.8291C101.642 54.0732 101.46 53.1885 101.46 52.1748C101.46 50.6045 101.853 49.3828 102.638 48.5098C103.423 47.6309 104.513 47.1914 105.907 47.1914C107.255 47.1914 108.324 47.6396 109.115 48.5361C109.912 49.4326 110.311 50.6455 110.311 52.1748ZM102.972 52.1748C102.972 53.4053 103.218 54.3428 103.71 54.9873C104.202 55.6318 104.926 55.9541 105.881 55.9541C106.836 55.9541 107.56 55.6348 108.052 54.9961C108.55 54.3516 108.799 53.4111 108.799 52.1748C108.799 50.9502 108.55 50.0215 108.052 49.3887C107.56 48.75 106.83 48.4307 105.863 48.4307C104.908 48.4307 104.188 48.7441 103.701 49.3711C103.215 49.998 102.972 50.9326 102.972 52.1748ZM116.946 57.1758C115.522 57.1758 114.397 56.7422 113.571 55.875C112.751 55.0078 112.341 53.8037 112.341 52.2627C112.341 50.71 112.722 49.4766 113.483 48.5625C114.251 47.6484 115.279 47.1914 116.568 47.1914C117.775 47.1914 118.73 47.5898 119.434 48.3867C120.137 49.1777 120.488 50.2236 120.488 51.5244V52.4473H113.853C113.882 53.5781 114.166 54.4365 114.705 55.0225C115.25 55.6084 116.015 55.9014 116.999 55.9014C118.036 55.9014 119.062 55.6846 120.075 55.251V56.5518C119.56 56.7744 119.07 56.9326 118.607 57.0264C118.15 57.126 117.597 57.1758 116.946 57.1758ZM116.551 48.4131C115.777 48.4131 115.159 48.665 114.696 49.1689C114.239 49.6729 113.97 50.3701 113.888 51.2607H118.924C118.924 50.3408 118.719 49.6377 118.309 49.1514C117.898 48.6592 117.312 48.4131 116.551 48.4131ZM134.841 55.7432H139.112V47.3672H140.589V57H127.66V47.3672H129.119V55.7432H133.382V47.3672H134.841V55.7432ZM143.48 56.0684C143.48 55.6758 143.568 55.3799 143.744 55.1807C143.926 54.9756 144.184 54.873 144.518 54.873C144.857 54.873 145.121 54.9756 145.309 55.1807C145.502 55.3799 145.599 55.6758 145.599 56.0684C145.599 56.4492 145.502 56.7422 145.309 56.9473C145.115 57.1523 144.852 57.2549 144.518 57.2549C144.219 57.2549 143.97 57.1641 143.771 56.9824C143.577 56.7949 143.48 56.4902 143.48 56.0684ZM150.02 54.9082L150.151 55.1104C149.999 55.6963 149.779 56.376 149.492 57.1494C149.205 57.9287 148.906 58.6523 148.596 59.3203H147.497C147.655 58.7109 147.828 57.958 148.016 57.0615C148.209 56.165 148.344 55.4473 148.42 54.9082H150.02ZM165.945 60.3311H164.53V57H157.798V60.3311H156.392V55.7432H157.147C157.933 54.6768 158.548 53.4258 158.993 51.9902C159.438 50.5547 159.67 49.0137 159.688 47.3672H164.565V55.7432H165.945V60.3311ZM163.159 55.7432V48.5186H160.997C160.921 49.8193 160.669 51.1377 160.241 52.4736C159.819 53.8037 159.292 54.8936 158.659 55.7432H163.159ZM167.668 56.0684C167.668 55.6758 167.756 55.3799 167.932 55.1807C168.113 54.9756 168.371 54.873 168.705 54.873C169.045 54.873 169.309 54.9756 169.496 55.1807C169.689 55.3799 169.786 55.6758 169.786 56.0684C169.786 56.4492 169.689 56.7422 169.496 56.9473C169.303 57.1523 169.039 57.2549 168.705 57.2549C168.406 57.2549 168.157 57.1641 167.958 56.9824C167.765 56.7949 167.668 56.4902 167.668 56.0684ZM11.2842 87H9.86035V77.8418C9.86035 77.0801 9.88379 76.3594 9.93066 75.6797C9.80762 75.8027 9.66992 75.9316 9.51758 76.0664C9.36523 76.2012 8.66797 76.7725 7.42578 77.7803L6.65234 76.7783L10.0537 74.1504H11.2842V87ZM24.626 87H16.1797V85.7432L19.5635 82.3418C20.5947 81.2988 21.2744 80.5547 21.6025 80.1094C21.9307 79.6641 22.1768 79.2305 22.3408 78.8086C22.5049 78.3867 22.5869 77.9326 22.5869 77.4463C22.5869 76.7607 22.3789 76.2188 21.9629 75.8203C21.5469 75.416 20.9697 75.2139 20.2314 75.2139C19.6982 75.2139 19.1914 75.3018 18.7109 75.4775C18.2363 75.6533 17.7061 75.9727 17.1201 76.4355L16.3467 75.4424C17.5303 74.458 18.8193 73.9658 20.2139 73.9658C21.4209 73.9658 22.3672 74.2764 23.0527 74.8975C23.7383 75.5127 24.0811 76.3418 24.0811 77.3848C24.0811 78.1992 23.8525 79.0049 23.3955 79.8018C22.9385 80.5986 22.083 81.6064 20.8291 82.8252L18.0166 85.5762V85.6465H24.626V87ZM30.4971 79.1514C31.8506 79.1514 32.9141 79.4883 33.6875 80.1621C34.4668 80.8301 34.8564 81.7471 34.8564 82.9131C34.8564 84.2432 34.4316 85.2861 33.582 86.042C32.7383 86.7979 31.5723 87.1758 30.084 87.1758C28.6367 87.1758 27.5322 86.9443 26.7705 86.4814V85.0752C27.1807 85.3389 27.6904 85.5469 28.2998 85.6992C28.9092 85.8457 29.5098 85.9189 30.1016 85.9189C31.1328 85.9189 31.9326 85.6758 32.501 85.1895C33.0752 84.7031 33.3623 84 33.3623 83.0801C33.3623 81.2871 32.2637 80.3906 30.0664 80.3906C29.5098 80.3906 28.7656 80.4756 27.834 80.6455L27.0781 80.1621L27.5615 74.1504H33.9512V75.4951H28.8096L28.4844 79.3535C29.1582 79.2188 29.8291 79.1514 30.4971 79.1514ZM38.9785 84.9082L39.1104 85.1104C38.958 85.6963 38.7383 86.376 38.4512 87.1494C38.1641 87.9287 37.8652 88.6523 37.5547 89.3203H36.4561C36.6143 88.7109 36.7871 87.958 36.9746 87.0615C37.168 86.165 37.3027 85.4473 37.3789 84.9082H38.9785ZM50.3867 87.1758C48.9922 87.1758 47.9111 86.748 47.1436 85.8926C46.3818 85.0312 46.001 83.8154 46.001 82.2451C46.001 80.6338 46.3877 79.3887 47.1611 78.5098C47.9404 77.6309 49.0479 77.1914 50.4834 77.1914C50.9463 77.1914 51.4092 77.2412 51.8721 77.3408C52.335 77.4404 52.6982 77.5576 52.9619 77.6924L52.5137 78.9316C52.1914 78.8027 51.8398 78.6973 51.459 78.6152C51.0781 78.5273 50.7412 78.4834 50.4482 78.4834C48.4912 78.4834 47.5127 79.7314 47.5127 82.2275C47.5127 83.4111 47.75 84.3193 48.2246 84.9521C48.7051 85.585 49.4141 85.9014 50.3516 85.9014C51.1543 85.9014 51.9775 85.7285 52.8213 85.3828V86.6748C52.1768 87.0088 51.3652 87.1758 50.3867 87.1758ZM61.6104 78.6152H58.4814V87H57.0225V78.6152H53.9287V77.3672H61.6104V78.6152ZM68 87.1758C67.373 87.1758 66.7988 87.0615 66.2773 86.833C65.7617 86.5986 65.3281 86.2412 64.9766 85.7607H64.8711C64.9414 86.3232 64.9766 86.8564 64.9766 87.3604V91.3242H63.5176V77.3672H64.7041L64.9062 78.6855H64.9766C65.3516 78.1582 65.7881 77.7773 66.2861 77.543C66.7842 77.3086 67.3555 77.1914 68 77.1914C69.2773 77.1914 70.2617 77.6279 70.9531 78.501C71.6504 79.374 71.999 80.5986 71.999 82.1748C71.999 83.7568 71.6445 84.9873 70.9355 85.8662C70.2324 86.7393 69.2539 87.1758 68 87.1758ZM67.7891 78.4307C66.8047 78.4307 66.0928 78.7031 65.6533 79.248C65.2139 79.793 64.9883 80.6602 64.9766 81.8496V82.1748C64.9766 83.5283 65.2021 84.498 65.6533 85.084C66.1045 85.6641 66.8281 85.9541 67.8242 85.9541C68.6562 85.9541 69.3066 85.6172 69.7754 84.9434C70.25 84.2695 70.4873 83.3408 70.4873 82.1572C70.4873 80.9561 70.25 80.0361 69.7754 79.3975C69.3066 78.7529 68.6445 78.4307 67.7891 78.4307ZM74.3457 86.0684C74.3457 85.6758 74.4336 85.3799 74.6094 85.1807C74.791 84.9756 75.0488 84.873 75.3828 84.873C75.7227 84.873 75.9863 84.9756 76.1738 85.1807C76.3672 85.3799 76.4639 85.6758 76.4639 86.0684C76.4639 86.4492 76.3672 86.7422 76.1738 86.9473C75.9805 87.1523 75.7168 87.2549 75.3828 87.2549C75.084 87.2549 74.835 87.1641 74.6357 86.9824C74.4424 86.7949 74.3457 86.4902 74.3457 86.0684ZM88.7686 87H87.3447V77.8418C87.3447 77.0801 87.3682 76.3594 87.415 75.6797C87.292 75.8027 87.1543 75.9316 87.002 76.0664C86.8496 76.2012 86.1523 76.7725 84.9102 77.7803L84.1367 76.7783L87.5381 74.1504H88.7686V87ZM95.8613 84.9082L95.9932 85.1104C95.8408 85.6963 95.6211 86.376 95.334 87.1494C95.0469 87.9287 94.748 88.6523 94.4375 89.3203H93.3389C93.4971 88.7109 93.6699 87.958 93.8574 87.0615C94.0508 86.165 94.1855 85.4473 94.2617 84.9082H95.8613ZM111.734 82.1748C111.734 83.7451 111.339 84.9727 110.548 85.8574C109.757 86.7363 108.664 87.1758 107.27 87.1758C106.408 87.1758 105.644 86.9736 104.976 86.5693C104.308 86.165 103.792 85.585 103.429 84.8291C103.065 84.0732 102.884 83.1885 102.884 82.1748C102.884 80.6045 103.276 79.3828 104.062 78.5098C104.847 77.6309 105.937 77.1914 107.331 77.1914C108.679 77.1914 109.748 77.6396 110.539 78.5361C111.336 79.4326 111.734 80.6455 111.734 82.1748ZM104.396 82.1748C104.396 83.4053 104.642 84.3428 105.134 84.9873C105.626 85.6318 106.35 85.9541 107.305 85.9541C108.26 85.9541 108.983 85.6348 109.476 84.9961C109.974 84.3516 110.223 83.4111 110.223 82.1748C110.223 80.9502 109.974 80.0215 109.476 79.3887C108.983 78.75 108.254 78.4307 107.287 78.4307C106.332 78.4307 105.611 78.7441 105.125 79.3711C104.639 79.998 104.396 80.9326 104.396 82.1748ZM124.619 82.1748C124.619 83.6338 124.203 84.7969 123.371 85.6641C122.545 86.5254 121.388 87.0176 119.899 87.1406V91.3242H118.458V87.1406C117.005 87.0293 115.856 86.5312 115.013 85.6465C114.169 84.7617 113.747 83.6045 113.747 82.1748C113.747 80.7158 114.166 79.5557 115.004 78.6943C115.848 77.833 117.017 77.3438 118.511 77.2266V73.3242H119.899V77.2266C121.37 77.3613 122.524 77.8682 123.362 78.7471C124.2 79.626 124.619 80.7686 124.619 82.1748ZM115.276 82.1748C115.276 83.2998 115.534 84.1816 116.05 84.8203C116.565 85.459 117.386 85.8311 118.511 85.9365V78.4482C117.427 78.5479 116.615 78.9023 116.076 79.5117C115.543 80.1152 115.276 81.0029 115.276 82.1748ZM123.107 82.1748C123.107 79.9307 122.038 78.6943 119.899 78.4658V85.9365C121.013 85.8252 121.824 85.4502 122.334 84.8115C122.85 84.1729 123.107 83.2939 123.107 82.1748ZM128.539 77.3672V83.4756L128.478 85.0752L128.451 85.5762L133.663 77.3672H135.482V87H134.12V81.1113L134.146 79.9512L134.19 78.8086L128.987 87H127.168V77.3672H128.539ZM142.426 87.1758C141.031 87.1758 139.95 86.748 139.183 85.8926C138.421 85.0312 138.04 83.8154 138.04 82.2451C138.04 80.6338 138.427 79.3887 139.2 78.5098C139.979 77.6309 141.087 77.1914 142.522 77.1914C142.985 77.1914 143.448 77.2412 143.911 77.3408C144.374 77.4404 144.737 77.5576 145.001 77.6924L144.553 78.9316C144.23 78.8027 143.879 78.6973 143.498 78.6152C143.117 78.5273 142.78 78.4834 142.487 78.4834C140.53 78.4834 139.552 79.7314 139.552 82.2275C139.552 83.4111 139.789 84.3193 140.264 84.9521C140.744 85.585 141.453 85.9014 142.391 85.9014C143.193 85.9014 144.017 85.7285 144.86 85.3828V86.6748C144.216 87.0088 143.404 87.1758 142.426 87.1758ZM155.179 79.1514C156.532 79.1514 157.596 79.4883 158.369 80.1621C159.148 80.8301 159.538 81.7471 159.538 82.9131C159.538 84.2432 159.113 85.2861 158.264 86.042C157.42 86.7979 156.254 87.1758 154.766 87.1758C153.318 87.1758 152.214 86.9443 151.452 86.4814V85.0752C151.862 85.3389 152.372 85.5469 152.981 85.6992C153.591 85.8457 154.191 85.9189 154.783 85.9189C155.814 85.9189 156.614 85.6758 157.183 85.1895C157.757 84.7031 158.044 84 158.044 83.0801C158.044 81.2871 156.945 80.3906 154.748 80.3906C154.191 80.3906 153.447 80.4756 152.516 80.6455L151.76 80.1621L152.243 74.1504H158.633V75.4951H153.491L153.166 79.3535C153.84 79.2188 154.511 79.1514 155.179 79.1514Z" fill="#DFDFDF"/>
<path d="M9.5 7C6.00786 7 3.16666 9.84121 3.16666 13.3333C3.16666 14.3817 3.42876 15.4211 3.92703 16.3431L9.15366 25.7959C9.22324 25.9219 9.35583 26 9.5 26C9.64417 26 9.77676 25.9219 9.84634 25.7959L15.0749 16.3399C15.5712 15.4211 15.8333 14.3816 15.8333 13.3333C15.8333 9.84121 12.9921 7 9.5 7ZM9.5 16.5C7.75393 16.5 6.33335 15.0794 6.33335 13.3333C6.33335 11.5873 7.75393 10.1667 9.5 10.1667C11.2461 10.1667 12.6667 11.5873 12.6667 13.3333C12.6667 15.0794 11.2461 16.5 9.5 16.5Z" fill="white"/>
<path d="M36.1426 23L34.8594 19.4316H29.9463L28.6895 23H26.4746L31.2822 10.0977H33.5674L38.375 23H36.1426ZM34.3057 17.6211L33.1016 14.123C33.0137 13.8887 32.8906 13.5195 32.7324 13.0156C32.5801 12.5117 32.4746 12.1426 32.416 11.9082C32.2578 12.6289 32.0264 13.417 31.7217 14.2725L30.5615 17.6211H34.3057ZM49.1768 26.4365H47.252V23H40.5898V26.4365H38.6826V21.4004H39.4736C40.165 20.4102 40.7129 19.2148 41.1172 17.8145C41.5273 16.4082 41.7705 14.8965 41.8467 13.2793H47.7529V21.4004H49.1768V26.4365ZM45.7227 21.4004V14.8613H43.6309C43.5195 16.0684 43.2852 17.2578 42.9277 18.4297C42.5762 19.6016 42.1455 20.5918 41.6357 21.4004H45.7227ZM55.9092 23.1758C54.6787 23.1758 53.7236 22.7334 53.0439 21.8486H52.9209C53.0029 22.6689 53.0439 23.167 53.0439 23.3428V27.3242H50.9785V13.2793H52.6484C52.6953 13.4609 52.792 13.8945 52.9385 14.5801H53.0439C53.6885 13.5957 54.6553 13.1035 55.9443 13.1035C57.1572 13.1035 58.1006 13.543 58.7744 14.4219C59.4541 15.3008 59.7939 16.5342 59.7939 18.1221C59.7939 19.71 59.4482 20.9492 58.7568 21.8398C58.0713 22.7305 57.1221 23.1758 55.9092 23.1758ZM55.4082 14.791C54.5879 14.791 53.9873 15.0312 53.6064 15.5117C53.2314 15.9922 53.0439 16.7598 53.0439 17.8145V18.1221C53.0439 19.3057 53.2314 20.1641 53.6064 20.6973C53.9814 21.2246 54.5938 21.4883 55.4434 21.4883C56.1582 21.4883 56.709 21.1953 57.0957 20.6094C57.4824 20.0234 57.6758 19.1885 57.6758 18.1045C57.6758 17.0146 57.4824 16.1914 57.0957 15.6348C56.7148 15.0723 56.1523 14.791 55.4082 14.791ZM66.4385 23.1758C64.9268 23.1758 63.7432 22.7363 62.8877 21.8574C62.0381 20.9727 61.6133 19.7568 61.6133 18.21C61.6133 16.6221 62.0088 15.374 62.7998 14.4658C63.5908 13.5576 64.6777 13.1035 66.0605 13.1035C67.3438 13.1035 68.3574 13.4932 69.1016 14.2725C69.8457 15.0518 70.2178 16.124 70.2178 17.4893V18.6055H63.7402C63.7695 19.5488 64.0244 20.2754 64.5049 20.7852C64.9854 21.2891 65.6621 21.541 66.5352 21.541C67.1094 21.541 67.6426 21.4883 68.1348 21.3828C68.6328 21.2715 69.166 21.0898 69.7344 20.8379V22.5166C69.2305 22.7568 68.7207 22.9268 68.2051 23.0264C67.6895 23.126 67.1006 23.1758 66.4385 23.1758ZM66.0605 14.668C65.4043 14.668 64.877 14.876 64.4785 15.292C64.0859 15.708 63.8516 16.3145 63.7754 17.1113H68.1875C68.1758 16.3086 67.9824 15.7021 67.6074 15.292C67.2324 14.876 66.7168 14.668 66.0605 14.668ZM76.4844 23.1758C75.0137 23.1758 73.8945 22.748 73.127 21.8926C72.3652 21.0312 71.9844 19.7979 71.9844 18.1924C71.9844 16.5576 72.3828 15.3008 73.1797 14.4219C73.9824 13.543 75.1396 13.1035 76.6514 13.1035C77.6768 13.1035 78.5996 13.2939 79.4199 13.6748L78.7959 15.3359C77.9229 14.9961 77.2021 14.8262 76.6338 14.8262C74.9521 14.8262 74.1113 15.9424 74.1113 18.1748C74.1113 19.2646 74.3193 20.085 74.7354 20.6357C75.1572 21.1807 75.7725 21.4531 76.5811 21.4531C77.501 21.4531 78.3711 21.2246 79.1914 20.7676V22.5693C78.8223 22.7861 78.4268 22.9414 78.0049 23.0352C77.5889 23.1289 77.082 23.1758 76.4844 23.1758Z" fill="white"/>
</svg>
