<svg width="200" height="95" viewBox="0 0 200 95" fill="none" xmlns="http://www.w3.org/2000/svg">
<path d="M21.3555 57H19.8613V45.4775H13.2607V57H11.7666V44.1504H21.3555V57ZM26.1367 47.3672V51.4014H31.5332V47.3672H32.9922V57H31.5332V52.6582H26.1367V57H24.6777V47.3672H26.1367ZM39.9531 52.8428V51.5068H44.2686V52.8428H39.9531ZM52.6973 57H51.2383V47.3672H59.3242V57H57.8477V48.6328H52.6973V57ZM68.9131 48.6152H65.7842V57H64.3252V48.6152H61.2314V47.3672H68.9131V48.6152ZM79.3457 57.1758C77.9512 57.1758 76.8701 56.748 76.1025 55.8926C75.3408 55.0312 74.96 53.8154 74.96 52.2451C74.96 50.6338 75.3467 49.3887 76.1201 48.5098C76.8994 47.6309 78.0068 47.1914 79.4424 47.1914C79.9053 47.1914 80.3682 47.2412 80.8311 47.3408C81.2939 47.4404 81.6572 47.5576 81.9209 47.6924L81.4727 48.9316C81.1504 48.8027 80.7988 48.6973 80.418 48.6152C80.0371 48.5273 79.7002 48.4834 79.4072 48.4834C77.4502 48.4834 76.4717 49.7314 76.4717 52.2275C76.4717 53.4111 76.709 54.3193 77.1836 54.9521C77.6641 55.585 78.373 55.9014 79.3105 55.9014C80.1133 55.9014 80.9365 55.7285 81.7803 55.3828V56.6748C81.1357 57.0088 80.3242 57.1758 79.3457 57.1758ZM96.5283 49.6348C96.5283 54.6621 94.583 57.1758 90.6924 57.1758C90.0127 57.1758 89.4736 57.1172 89.0752 57V55.7432C89.5439 55.8955 90.0771 55.9717 90.6748 55.9717C92.0811 55.9717 93.1416 55.5381 93.8564 54.6709C94.5771 53.7979 94.9697 52.4619 95.0342 50.6631H94.9287C94.6064 51.1494 94.1787 51.5215 93.6455 51.7793C93.1123 52.0312 92.5117 52.1572 91.8438 52.1572C90.707 52.1572 89.8047 51.8174 89.1367 51.1377C88.4688 50.458 88.1348 49.5088 88.1348 48.29C88.1348 46.9541 88.5068 45.8994 89.251 45.126C90.001 44.3525 90.9854 43.9658 92.2041 43.9658C93.0771 43.9658 93.8389 44.1914 94.4893 44.6426C95.1455 45.0879 95.6494 45.7412 96.001 46.6025C96.3525 47.458 96.5283 48.4688 96.5283 49.6348ZM92.2041 45.2139C91.3662 45.2139 90.7188 45.4834 90.2617 46.0225C89.8047 46.5615 89.5762 47.3115 89.5762 48.2725C89.5762 49.1162 89.7871 49.7812 90.209 50.2676C90.6309 50.748 91.2725 50.9883 92.1338 50.9883C92.667 50.9883 93.1562 50.8799 93.6016 50.6631C94.0527 50.4463 94.4072 50.1504 94.665 49.7754C94.9229 49.4004 95.0518 49.0078 95.0518 48.5977C95.0518 47.9824 94.9316 47.4141 94.6914 46.8926C94.4512 46.3711 94.1143 45.9609 93.6807 45.6621C93.2529 45.3633 92.7607 45.2139 92.2041 45.2139ZM98.8398 56.0684C98.8398 55.6758 98.9277 55.3799 99.1035 55.1807C99.2852 54.9756 99.543 54.873 99.877 54.873C100.217 54.873 100.48 54.9756 100.668 55.1807C100.861 55.3799 100.958 55.6758 100.958 56.0684C100.958 56.4492 100.861 56.7422 100.668 56.9473C100.475 57.1523 100.211 57.2549 99.877 57.2549C99.5781 57.2549 99.3291 57.1641 99.1299 56.9824C98.9365 56.7949 98.8398 56.4902 98.8398 56.0684ZM98.8398 48.3076C98.8398 47.5166 99.1855 47.1211 99.877 47.1211C100.598 47.1211 100.958 47.5166 100.958 48.3076C100.958 48.6885 100.861 48.9814 100.668 49.1865C100.475 49.3916 100.211 49.4941 99.877 49.4941C99.5781 49.4941 99.3291 49.4033 99.1299 49.2217C98.9365 49.0342 98.8398 48.7295 98.8398 48.3076ZM111.698 50.5576C111.698 52.7783 111.347 54.4365 110.644 55.5322C109.946 56.6279 108.877 57.1758 107.436 57.1758C106.053 57.1758 105.001 56.6162 104.28 55.4971C103.56 54.3721 103.199 52.7256 103.199 50.5576C103.199 48.3193 103.548 46.6582 104.245 45.5742C104.942 44.4902 106.006 43.9482 107.436 43.9482C108.83 43.9482 109.888 44.5137 110.608 45.6445C111.335 46.7754 111.698 48.4131 111.698 50.5576ZM104.676 50.5576C104.676 52.4268 104.896 53.7891 105.335 54.6445C105.774 55.4941 106.475 55.9189 107.436 55.9189C108.408 55.9189 109.111 55.4883 109.545 54.627C109.984 53.7598 110.204 52.4033 110.204 50.5576C110.204 48.7119 109.984 47.3613 109.545 46.5059C109.111 45.6445 108.408 45.2139 107.436 45.2139C106.475 45.2139 105.774 45.6387 105.335 46.4883C104.896 47.332 104.676 48.6885 104.676 50.5576ZM121.999 50.5576C121.999 52.7783 121.647 54.4365 120.944 55.5322C120.247 56.6279 119.178 57.1758 117.736 57.1758C116.354 57.1758 115.302 56.6162 114.581 55.4971C113.86 54.3721 113.5 52.7256 113.5 50.5576C113.5 48.3193 113.849 46.6582 114.546 45.5742C115.243 44.4902 116.307 43.9482 117.736 43.9482C119.131 43.9482 120.188 44.5137 120.909 45.6445C121.636 46.7754 121.999 48.4131 121.999 50.5576ZM114.977 50.5576C114.977 52.4268 115.196 53.7891 115.636 54.6445C116.075 55.4941 116.775 55.9189 117.736 55.9189C118.709 55.9189 119.412 55.4883 119.846 54.627C120.285 53.7598 120.505 52.4033 120.505 50.5576C120.505 48.7119 120.285 47.3613 119.846 46.5059C119.412 45.6445 118.709 45.2139 117.736 45.2139C116.775 45.2139 116.075 45.6387 115.636 46.4883C115.196 47.332 114.977 48.6885 114.977 50.5576ZM137.494 60.3311H136.079V57H129.347V60.3311H127.94V55.7432H128.696C129.481 54.6768 130.097 53.4258 130.542 51.9902C130.987 50.5547 131.219 49.0137 131.236 47.3672H136.114V55.7432H137.494V60.3311ZM134.708 55.7432V48.5186H132.546C132.47 49.8193 132.218 51.1377 131.79 52.4736C131.368 53.8037 130.841 54.8936 130.208 55.7432H134.708ZM147.742 52.1748C147.742 53.7451 147.347 54.9727 146.556 55.8574C145.765 56.7363 144.672 57.1758 143.277 57.1758C142.416 57.1758 141.651 56.9736 140.983 56.5693C140.315 56.165 139.8 55.585 139.437 54.8291C139.073 54.0732 138.892 53.1885 138.892 52.1748C138.892 50.6045 139.284 49.3828 140.069 48.5098C140.854 47.6309 141.944 47.1914 143.339 47.1914C144.687 47.1914 145.756 47.6396 146.547 48.5361C147.344 49.4326 147.742 50.6455 147.742 52.1748ZM140.403 52.1748C140.403 53.4053 140.649 54.3428 141.142 54.9873C141.634 55.6318 142.357 55.9541 143.312 55.9541C144.268 55.9541 144.991 55.6348 145.483 54.9961C145.981 54.3516 146.23 53.4111 146.23 52.1748C146.23 50.9502 145.981 50.0215 145.483 49.3887C144.991 48.75 144.262 48.4307 143.295 48.4307C142.34 48.4307 141.619 48.7441 141.133 49.3711C140.646 49.998 140.403 50.9326 140.403 52.1748ZM159.722 57H158.298V47.8418C158.298 47.0801 158.321 46.3594 158.368 45.6797C158.245 45.8027 158.107 45.9316 157.955 46.0664C157.803 46.2012 157.105 46.7725 155.863 47.7803L155.09 46.7783L158.491 44.1504H159.722V57ZM173.063 49.6348C173.063 54.6621 171.118 57.1758 167.228 57.1758C166.548 57.1758 166.009 57.1172 165.61 57V55.7432C166.079 55.8955 166.612 55.9717 167.21 55.9717C168.616 55.9717 169.677 55.5381 170.392 54.6709C171.112 53.7979 171.505 52.4619 171.569 50.6631H171.464C171.142 51.1494 170.714 51.5215 170.181 51.7793C169.647 52.0312 169.047 52.1572 168.379 52.1572C167.242 52.1572 166.34 51.8174 165.672 51.1377C165.004 50.458 164.67 49.5088 164.67 48.29C164.67 46.9541 165.042 45.8994 165.786 45.126C166.536 44.3525 167.521 43.9658 168.739 43.9658C169.612 43.9658 170.374 44.1914 171.024 44.6426C171.681 45.0879 172.185 45.7412 172.536 46.6025C172.888 47.458 173.063 48.4688 173.063 49.6348ZM168.739 45.2139C167.901 45.2139 167.254 45.4834 166.797 46.0225C166.34 46.5615 166.111 47.3115 166.111 48.2725C166.111 49.1162 166.322 49.7812 166.744 50.2676C167.166 50.748 167.808 50.9883 168.669 50.9883C169.202 50.9883 169.691 50.8799 170.137 50.6631C170.588 50.4463 170.942 50.1504 171.2 49.7754C171.458 49.4004 171.587 49.0078 171.587 48.5977C171.587 47.9824 171.467 47.4141 171.227 46.8926C170.986 46.3711 170.649 45.9609 170.216 45.6621C169.788 45.3633 169.296 45.2139 168.739 45.2139ZM175.375 56.0684C175.375 55.6758 175.463 55.3799 175.639 55.1807C175.82 54.9756 176.078 54.873 176.412 54.873C176.752 54.873 177.016 54.9756 177.203 55.1807C177.396 55.3799 177.493 55.6758 177.493 56.0684C177.493 56.4492 177.396 56.7422 177.203 56.9473C177.01 57.1523 176.746 57.2549 176.412 57.2549C176.113 57.2549 175.864 57.1641 175.665 56.9824C175.472 56.7949 175.375 56.4902 175.375 56.0684ZM175.375 48.3076C175.375 47.5166 175.721 47.1211 176.412 47.1211C177.133 47.1211 177.493 47.5166 177.493 48.3076C177.493 48.6885 177.396 48.9814 177.203 49.1865C177.01 49.3916 176.746 49.4941 176.412 49.4941C176.113 49.4941 175.864 49.4033 175.665 49.2217C175.472 49.0342 175.375 48.7295 175.375 48.3076ZM188.233 50.5576C188.233 52.7783 187.882 54.4365 187.179 55.5322C186.481 56.6279 185.412 57.1758 183.971 57.1758C182.588 57.1758 181.536 56.6162 180.815 55.4971C180.095 54.3721 179.734 52.7256 179.734 50.5576C179.734 48.3193 180.083 46.6582 180.78 45.5742C181.478 44.4902 182.541 43.9482 183.971 43.9482C185.365 43.9482 186.423 44.5137 187.144 45.6445C187.87 46.7754 188.233 48.4131 188.233 50.5576ZM181.211 50.5576C181.211 52.4268 181.431 53.7891 181.87 54.6445C182.31 55.4941 183.01 55.9189 183.971 55.9189C184.943 55.9189 185.646 55.4883 186.08 54.627C186.52 53.7598 186.739 52.4033 186.739 50.5576C186.739 48.7119 186.52 47.3613 186.08 46.5059C185.646 45.6445 184.943 45.2139 183.971 45.2139C183.01 45.2139 182.31 45.6387 181.87 46.4883C181.431 47.332 181.211 48.6885 181.211 50.5576ZM198.534 50.5576C198.534 52.7783 198.183 54.4365 197.479 55.5322C196.782 56.6279 195.713 57.1758 194.271 57.1758C192.889 57.1758 191.837 56.6162 191.116 55.4971C190.396 54.3721 190.035 52.7256 190.035 50.5576C190.035 48.3193 190.384 46.6582 191.081 45.5742C191.778 44.4902 192.842 43.9482 194.271 43.9482C195.666 43.9482 196.724 44.5137 197.444 45.6445C198.171 46.7754 198.534 48.4131 198.534 50.5576ZM191.512 50.5576C191.512 52.4268 191.731 53.7891 192.171 54.6445C192.61 55.4941 193.311 55.9189 194.271 55.9189C195.244 55.9189 195.947 55.4883 196.381 54.627C196.82 53.7598 197.04 52.4033 197.04 50.5576C197.04 48.7119 196.82 47.3613 196.381 46.5059C195.947 45.6445 195.244 45.2139 194.271 45.2139C193.311 45.2139 192.61 45.6387 192.171 46.4883C191.731 47.332 191.512 48.6885 191.512 50.5576ZM17.2686 75.3018C15.8564 75.3018 14.7402 75.7734 13.9199 76.7168C13.1055 77.6543 12.6982 78.9404 12.6982 80.5752C12.6982 82.2568 13.0908 83.5576 13.876 84.4775C14.667 85.3916 15.792 85.8486 17.251 85.8486C18.1475 85.8486 19.1699 85.6875 20.3184 85.3652V86.6748C19.4277 87.0088 18.3291 87.1758 17.0225 87.1758C15.1299 87.1758 13.668 86.6016 12.6367 85.4531C11.6113 84.3047 11.0986 82.6729 11.0986 80.5576C11.0986 79.2334 11.3447 78.0732 11.8369 77.0771C12.335 76.0811 13.0498 75.3135 13.9814 74.7744C14.9189 74.2354 16.0205 73.9658 17.2861 73.9658C18.6338 73.9658 19.8115 74.2119 20.8193 74.7041L20.1865 75.9873C19.2139 75.5303 18.2412 75.3018 17.2686 75.3018ZM22.4014 81.2256C22.4014 79.1162 22.7119 77.4727 23.333 76.2949C23.9541 75.1113 24.9385 74.373 26.2861 74.0801C27.9619 73.7227 29.4385 73.4326 30.7158 73.21L30.9883 74.4932C28.9551 74.833 27.502 75.1025 26.6289 75.3018C25.7793 75.4951 25.1406 75.9521 24.7129 76.6729C24.291 77.3936 24.0596 78.375 24.0186 79.6172H24.124C24.4873 79.125 24.9561 78.7383 25.5303 78.457C26.1045 78.1758 26.7051 78.0352 27.332 78.0352C28.5156 78.0352 29.4385 78.4189 30.1006 79.1865C30.7627 79.9541 31.0938 81.0176 31.0938 82.377C31.0938 83.8828 30.71 85.0605 29.9424 85.9102C29.1748 86.7539 28.1055 87.1758 26.7344 87.1758C25.3809 87.1758 24.3203 86.6572 23.5527 85.6201C22.7852 84.583 22.4014 83.1182 22.4014 81.2256ZM26.8662 85.9541C28.6533 85.9541 29.5469 84.8145 29.5469 82.5352C29.5469 80.3613 28.7354 79.2744 27.1123 79.2744C26.667 79.2744 26.2363 79.3682 25.8203 79.5557C25.4102 79.7373 25.0322 79.9805 24.6865 80.2852C24.3467 80.5898 24.083 80.9033 23.8955 81.2256C23.8955 82.7666 24.1387 83.9414 24.625 84.75C25.1113 85.5527 25.8584 85.9541 26.8662 85.9541ZM32.834 82.8428V81.5068H37.1494V82.8428H32.834ZM47.2568 79.7842C47.2568 80.4111 47.0752 80.8887 46.7119 81.2168C46.3545 81.5391 45.8506 81.7559 45.2002 81.8672V81.9463C46.0205 82.0576 46.6182 82.2979 46.9932 82.667C47.374 83.0361 47.5645 83.5459 47.5645 84.1963C47.5645 85.0928 47.2334 85.7842 46.5713 86.2705C45.915 86.7568 44.9541 87 43.6885 87H39.4434V77.3672H43.6709C46.0615 77.3672 47.2568 78.1729 47.2568 79.7842ZM46.1055 84.0996C46.1055 83.5781 45.9062 83.2002 45.5078 82.9658C45.1152 82.7256 44.4619 82.6055 43.5479 82.6055H40.9023V85.7783H43.583C45.2646 85.7783 46.1055 85.2188 46.1055 84.0996ZM45.833 79.9248C45.833 79.4561 45.6514 79.125 45.2881 78.9316C44.9307 78.7324 44.3857 78.6328 43.6533 78.6328H40.9023V81.3486H43.3721C44.2744 81.3486 44.9102 81.2373 45.2793 81.0146C45.6484 80.792 45.833 80.4287 45.833 79.9248ZM53.541 87.1758C52.1465 87.1758 51.0654 86.748 50.2979 85.8926C49.5361 85.0312 49.1553 83.8154 49.1553 82.2451C49.1553 80.6338 49.542 79.3887 50.3154 78.5098C51.0947 77.6309 52.2021 77.1914 53.6377 77.1914C54.1006 77.1914 54.5635 77.2412 55.0264 77.3408C55.4893 77.4404 55.8525 77.5576 56.1162 77.6924L55.668 78.9316C55.3457 78.8027 54.9941 78.6973 54.6133 78.6152C54.2324 78.5273 53.8955 78.4834 53.6025 78.4834C51.6455 78.4834 50.667 79.7314 50.667 82.2275C50.667 83.4111 50.9043 84.3193 51.3789 84.9521C51.8594 85.585 52.5684 85.9014 53.5059 85.9014C54.3086 85.9014 55.1318 85.7285 55.9756 85.3828V86.6748C55.3311 87.0088 54.5195 87.1758 53.541 87.1758ZM70.7588 79.7842C70.7588 80.4111 70.5771 80.8887 70.2139 81.2168C69.8564 81.5391 69.3525 81.7559 68.7021 81.8672V81.9463C69.5225 82.0576 70.1201 82.2979 70.4951 82.667C70.876 83.0361 71.0664 83.5459 71.0664 84.1963C71.0664 85.0928 70.7354 85.7842 70.0732 86.2705C69.417 86.7568 68.4561 87 67.1904 87H62.9453V77.3672H67.1729C69.5635 77.3672 70.7588 78.1729 70.7588 79.7842ZM69.6074 84.0996C69.6074 83.5781 69.4082 83.2002 69.0098 82.9658C68.6172 82.7256 67.9639 82.6055 67.0498 82.6055H64.4043V85.7783H67.085C68.7666 85.7783 69.6074 85.2188 69.6074 84.0996ZM69.335 79.9248C69.335 79.4561 69.1533 79.125 68.79 78.9316C68.4326 78.7324 67.8877 78.6328 67.1553 78.6328H64.4043V81.3486H66.874C67.7764 81.3486 68.4121 81.2373 68.7812 81.0146C69.1504 80.792 69.335 80.4287 69.335 79.9248ZM74.6523 81.3486H77.2803C78.5049 81.3486 79.4102 81.5771 79.9961 82.0342C80.5879 82.4854 80.8838 83.1621 80.8838 84.0645C80.8838 85.0312 80.5703 85.7637 79.9434 86.2617C79.3223 86.7539 78.4053 87 77.1924 87H73.1934V77.3672H74.6523V81.3486ZM83.96 87H82.501V77.3672H83.96V87ZM74.6523 82.6055V85.7783H77.1221C78.6689 85.7783 79.4424 85.2363 79.4424 84.1523C79.4424 83.6133 79.2637 83.2207 78.9062 82.9746C78.5488 82.7285 77.9395 82.6055 77.0781 82.6055H74.6523ZM89.3828 82.0693L86.0342 77.3672H87.6953L90.2354 81.0586L92.7666 77.3672H94.4102L91.0615 82.0693L94.5859 87H92.9336L90.2354 83.0977L87.5107 87H85.8584L89.3828 82.0693ZM104.816 82.1748C104.816 83.7451 104.421 84.9727 103.63 85.8574C102.839 86.7363 101.746 87.1758 100.352 87.1758C99.4902 87.1758 98.7256 86.9736 98.0576 86.5693C97.3896 86.165 96.874 85.585 96.5107 84.8291C96.1475 84.0732 95.9658 83.1885 95.9658 82.1748C95.9658 80.6045 96.3584 79.3828 97.1436 78.5098C97.9287 77.6309 99.0186 77.1914 100.413 77.1914C101.761 77.1914 102.83 77.6396 103.621 78.5361C104.418 79.4326 104.816 80.6455 104.816 82.1748ZM97.4775 82.1748C97.4775 83.4053 97.7236 84.3428 98.2158 84.9873C98.708 85.6318 99.4316 85.9541 100.387 85.9541C101.342 85.9541 102.065 85.6348 102.558 84.9961C103.056 84.3516 103.305 83.4111 103.305 82.1748C103.305 80.9502 103.056 80.0215 102.558 79.3887C102.065 78.75 101.336 78.4307 100.369 78.4307C99.4141 78.4307 98.6934 78.7441 98.207 79.3711C97.7207 79.998 97.4775 80.9326 97.4775 82.1748ZM115.75 90.3311H114.335V87H107.603V90.3311H106.196V85.7432H106.952C107.737 84.6768 108.353 83.4258 108.798 81.9902C109.243 80.5547 109.475 79.0137 109.492 77.3672H114.37V85.7432H115.75V90.3311ZM112.964 85.7432V78.5186H110.802C110.726 79.8193 110.474 81.1377 110.046 82.4736C109.624 83.8037 109.097 84.8936 108.464 85.7432H112.964ZM119.143 77.3672V81.4014H124.539V77.3672H125.998V87H124.539V82.6582H119.143V87H117.684V77.3672H119.143ZM137.406 82.1748C137.406 83.7451 137.011 84.9727 136.22 85.8574C135.429 86.7363 134.336 87.1758 132.941 87.1758C132.08 87.1758 131.315 86.9736 130.647 86.5693C129.979 86.165 129.464 85.585 129.101 84.8291C128.737 84.0732 128.556 83.1885 128.556 82.1748C128.556 80.6045 128.948 79.3828 129.733 78.5098C130.519 77.6309 131.608 77.1914 133.003 77.1914C134.351 77.1914 135.42 77.6396 136.211 78.5361C137.008 79.4326 137.406 80.6455 137.406 82.1748ZM130.067 82.1748C130.067 83.4053 130.313 84.3428 130.806 84.9873C131.298 85.6318 132.021 85.9541 132.977 85.9541C133.932 85.9541 134.655 85.6348 135.147 84.9961C135.646 84.3516 135.895 83.4111 135.895 82.1748C135.895 80.9502 135.646 80.0215 135.147 79.3887C134.655 78.75 133.926 78.4307 132.959 78.4307C132.004 78.4307 131.283 78.7441 130.797 79.3711C130.311 79.998 130.067 80.9326 130.067 82.1748ZM141.344 77.3672V83.4756L141.282 85.0752L141.256 85.5762L146.468 77.3672H148.287V87H146.925V81.1113L146.951 79.9512L146.995 78.8086L141.792 87H139.973V77.3672H141.344ZM144.095 76.0928C143.011 76.0928 142.22 75.8848 141.722 75.4688C141.224 75.0469 140.945 74.3555 140.887 73.3945H142.258C142.311 74.0039 142.469 74.4287 142.732 74.6689C143.002 74.9092 143.468 75.0293 144.13 75.0293C144.733 75.0293 145.179 74.9004 145.466 74.6426C145.759 74.3848 145.938 73.9688 146.002 73.3945H147.382C147.312 74.3203 147.016 75.0029 146.494 75.4424C145.973 75.876 145.173 76.0928 144.095 76.0928Z" fill="#DFDFDF"/>
<path d="M35.8555 17.4365H32.3574V15.8721H35.8555V12.2861H37.4375V15.8721H40.9443V17.4365H37.4375V21.0049H35.8555V17.4365ZM55.4902 13.1035C55.4902 13.918 55.2529 14.5977 54.7783 15.1426C54.3037 15.6816 53.6357 16.0449 52.7744 16.2324V16.3027C53.8057 16.4316 54.5791 16.7539 55.0947 17.2695C55.6104 17.7793 55.8682 18.459 55.8682 19.3086C55.8682 20.5449 55.4316 21.5 54.5586 22.1738C53.6855 22.8418 52.4434 23.1758 50.832 23.1758C49.4082 23.1758 48.207 22.9443 47.2285 22.4814V20.6445C47.7734 20.9141 48.3506 21.1221 48.96 21.2686C49.5693 21.415 50.1553 21.4883 50.7178 21.4883C51.7139 21.4883 52.458 21.3037 52.9502 20.9346C53.4424 20.5654 53.6885 19.9941 53.6885 19.2207C53.6885 18.5352 53.416 18.0312 52.8711 17.709C52.3262 17.3867 51.4707 17.2256 50.3047 17.2256H49.1885V15.5469H50.3223C52.373 15.5469 53.3984 14.8379 53.3984 13.4199C53.3984 12.8691 53.2197 12.4443 52.8623 12.1455C52.5049 11.8467 51.9775 11.6973 51.2803 11.6973C50.7939 11.6973 50.3252 11.7676 49.874 11.9082C49.4229 12.043 48.8896 12.3096 48.2744 12.708L47.2637 11.2666C48.4414 10.3994 49.8096 9.96582 51.3682 9.96582C52.6631 9.96582 53.6738 10.2441 54.4004 10.8008C55.127 11.3574 55.4902 12.125 55.4902 13.1035ZM59.0059 23L64.0859 11.9873H57.4062V10.168H66.292V11.6094L61.2383 23H59.0059ZM72.1895 14.9756C73.4844 14.9756 74.5098 15.3184 75.2656 16.0039C76.0215 16.6895 76.3994 17.624 76.3994 18.8076C76.3994 20.1787 75.9688 21.251 75.1074 22.0244C74.252 22.792 73.0332 23.1758 71.4512 23.1758C70.0156 23.1758 68.8877 22.9443 68.0674 22.4814V20.6094C68.542 20.8789 69.0869 21.0869 69.7021 21.2334C70.3174 21.3799 70.8887 21.4531 71.416 21.4531C72.3477 21.4531 73.0566 21.2451 73.543 20.8291C74.0293 20.4131 74.2725 19.8037 74.2725 19.001C74.2725 17.4658 73.2939 16.6982 71.3369 16.6982C71.0615 16.6982 70.7217 16.7275 70.3174 16.7861C69.9131 16.8389 69.5586 16.9004 69.2539 16.9707L68.3311 16.4258L68.8232 10.1504H75.5029V11.9873H70.6426L70.3525 15.1689C70.5576 15.1338 70.8066 15.0928 71.0996 15.0459C71.3984 14.999 71.7617 14.9756 72.1895 14.9756ZM82.7188 18.0693C82.7188 16.5166 82.9443 15.0635 83.3955 13.71C83.8525 12.3564 84.5088 11.1699 85.3643 10.1504H87.166C86.3516 11.252 85.7275 12.4883 85.2939 13.8594C84.8604 15.2246 84.6436 16.6221 84.6436 18.0518C84.6436 19.4814 84.8604 20.8672 85.2939 22.209C85.7275 23.5508 86.3457 24.7637 87.1484 25.8477H85.3643C84.5029 24.8516 83.8467 23.6885 83.3955 22.3584C82.9443 21.0283 82.7188 19.5986 82.7188 18.0693ZM97.2119 23H88.502V21.4355L91.8154 18.1045C92.7939 17.1025 93.4414 16.3936 93.7578 15.9775C94.0801 15.5557 94.3145 15.1602 94.4609 14.791C94.6074 14.4219 94.6807 14.0264 94.6807 13.6045C94.6807 13.0244 94.5049 12.5674 94.1533 12.2334C93.8076 11.8994 93.3271 11.7324 92.7119 11.7324C92.2197 11.7324 91.7422 11.8232 91.2793 12.0049C90.8223 12.1865 90.292 12.5146 89.6885 12.9893L88.5723 11.627C89.2871 11.0234 89.9814 10.5957 90.6553 10.3438C91.3291 10.0918 92.0469 9.96582 92.8086 9.96582C94.0039 9.96582 94.9619 10.2793 95.6826 10.9062C96.4033 11.5273 96.7637 12.3652 96.7637 13.4199C96.7637 14 96.6582 14.5508 96.4473 15.0723C96.2422 15.5938 95.9229 16.1328 95.4893 16.6895C95.0615 17.2402 94.3467 17.9873 93.3447 18.9307L91.1123 21.0928V21.1807H97.2119V23ZM107.478 15.6348C107.478 18.166 106.968 20.0557 105.948 21.3037C104.929 22.5518 103.394 23.1758 101.343 23.1758C100.563 23.1758 100.004 23.1289 99.6641 23.0352V21.3037C100.186 21.4502 100.71 21.5234 101.237 21.5234C102.632 21.5234 103.672 21.1484 104.357 20.3984C105.043 19.6484 105.418 18.4707 105.482 16.8652H105.377C105.031 17.3926 104.612 17.7734 104.12 18.0078C103.634 18.2422 103.062 18.3594 102.406 18.3594C101.27 18.3594 100.376 18.0049 99.7256 17.2959C99.0752 16.5869 98.75 15.6143 98.75 14.3779C98.75 13.0361 99.125 11.9697 99.875 11.1787C100.631 10.3818 101.659 9.9834 102.96 9.9834C103.874 9.9834 104.671 10.2061 105.351 10.6514C106.03 11.0967 106.555 11.7441 106.924 12.5938C107.293 13.4375 107.478 14.4512 107.478 15.6348ZM102.995 11.6973C102.28 11.6973 101.732 11.9316 101.352 12.4004C100.971 12.8633 100.78 13.5166 100.78 14.3604C100.78 15.0928 100.956 15.6699 101.308 16.0918C101.665 16.5078 102.204 16.7158 102.925 16.7158C103.622 16.7158 104.208 16.5078 104.683 16.0918C105.157 15.6758 105.395 15.1895 105.395 14.6328C105.395 14.1113 105.292 13.625 105.087 13.1738C104.888 12.7168 104.606 12.3564 104.243 12.0928C103.88 11.8291 103.464 11.6973 102.995 11.6973ZM113.261 18.0693C113.261 19.6104 113.032 21.0459 112.575 22.376C112.124 23.7061 111.471 24.8633 110.615 25.8477H108.831C109.64 24.752 110.258 23.5361 110.686 22.2002C111.119 20.8643 111.336 19.4814 111.336 18.0518C111.336 16.6162 111.119 15.2188 110.686 13.8594C110.252 12.4941 109.628 11.2578 108.813 10.1504H110.615C111.477 11.1758 112.133 12.3682 112.584 13.7275C113.035 15.0811 113.261 16.5283 113.261 18.0693ZM120.916 23L125.996 11.9873H119.316V10.168H128.202V11.6094L123.148 23H120.916ZM129.775 17.5244C129.775 12.4971 131.823 9.9834 135.919 9.9834C136.563 9.9834 137.108 10.0332 137.554 10.1328V11.8555C137.108 11.7266 136.593 11.6621 136.007 11.6621C134.63 11.6621 133.596 12.0312 132.904 12.7695C132.213 13.5078 131.838 14.6914 131.779 16.3203H131.885C132.16 15.8457 132.547 15.4795 133.045 15.2217C133.543 14.958 134.129 14.8262 134.803 14.8262C135.969 14.8262 136.877 15.1836 137.527 15.8984C138.178 16.6133 138.503 17.583 138.503 18.8076C138.503 20.1553 138.125 21.2217 137.369 22.0068C136.619 22.7861 135.594 23.1758 134.293 23.1758C133.373 23.1758 132.573 22.9561 131.894 22.5166C131.214 22.0713 130.689 21.4268 130.32 20.583C129.957 19.7334 129.775 18.7139 129.775 17.5244ZM134.258 21.4707C134.967 21.4707 135.512 21.2422 135.893 20.7852C136.279 20.3281 136.473 19.6748 136.473 18.8252C136.473 18.0869 136.291 17.5068 135.928 17.085C135.57 16.6631 135.031 16.4521 134.311 16.4521C133.865 16.4521 133.455 16.5488 133.08 16.7422C132.705 16.9297 132.409 17.1904 132.192 17.5244C131.976 17.8525 131.867 18.1895 131.867 18.5352C131.867 19.3613 132.09 20.0586 132.535 20.627C132.986 21.1895 133.561 21.4707 134.258 21.4707ZM144.383 14.9756C145.678 14.9756 146.703 15.3184 147.459 16.0039C148.215 16.6895 148.593 17.624 148.593 18.8076C148.593 20.1787 148.162 21.251 147.301 22.0244C146.445 22.792 145.227 23.1758 143.645 23.1758C142.209 23.1758 141.081 22.9443 140.261 22.4814V20.6094C140.735 20.8789 141.28 21.0869 141.896 21.2334C142.511 21.3799 143.082 21.4531 143.609 21.4531C144.541 21.4531 145.25 21.2451 145.736 20.8291C146.223 20.4131 146.466 19.8037 146.466 19.001C146.466 17.4658 145.487 16.6982 143.53 16.6982C143.255 16.6982 142.915 16.7275 142.511 16.7861C142.106 16.8389 141.752 16.9004 141.447 16.9707L140.524 16.4258L141.017 10.1504H147.696V11.9873H142.836L142.546 15.1689C142.751 15.1338 143 15.0928 143.293 15.0459C143.592 14.999 143.955 14.9756 144.383 14.9756ZM164.149 20.1963H162.418V23H160.405V20.1963H154.534V18.6055L160.405 10.1152H162.418V18.4824H164.149V20.1963ZM160.405 18.4824V15.2568C160.405 14.1084 160.435 13.168 160.493 12.4355H160.423C160.259 12.8223 160.001 13.291 159.649 13.8418L156.459 18.4824H160.405ZM169.625 14.9756C170.92 14.9756 171.945 15.3184 172.701 16.0039C173.457 16.6895 173.835 17.624 173.835 18.8076C173.835 20.1787 173.404 21.251 172.543 22.0244C171.688 22.792 170.469 23.1758 168.887 23.1758C167.451 23.1758 166.323 22.9443 165.503 22.4814V20.6094C165.978 20.8789 166.522 21.0869 167.138 21.2334C167.753 21.3799 168.324 21.4531 168.852 21.4531C169.783 21.4531 170.492 21.2451 170.979 20.8291C171.465 20.4131 171.708 19.8037 171.708 19.001C171.708 17.4658 170.729 16.6982 168.772 16.6982C168.497 16.6982 168.157 16.7275 167.753 16.7861C167.349 16.8389 166.994 16.9004 166.689 16.9707L165.767 16.4258L166.259 10.1504H172.938V11.9873H168.078L167.788 15.1689C167.993 15.1338 168.242 15.0928 168.535 15.0459C168.834 14.999 169.197 14.9756 169.625 14.9756ZM180.26 17.5244C180.26 12.4971 182.308 9.9834 186.403 9.9834C187.048 9.9834 187.593 10.0332 188.038 10.1328V11.8555C187.593 11.7266 187.077 11.6621 186.491 11.6621C185.114 11.6621 184.08 12.0312 183.389 12.7695C182.697 13.5078 182.322 14.6914 182.264 16.3203H182.369C182.645 15.8457 183.031 15.4795 183.529 15.2217C184.027 14.958 184.613 14.8262 185.287 14.8262C186.453 14.8262 187.361 15.1836 188.012 15.8984C188.662 16.6133 188.987 17.583 188.987 18.8076C188.987 20.1553 188.609 21.2217 187.854 22.0068C187.104 22.7861 186.078 23.1758 184.777 23.1758C183.857 23.1758 183.058 22.9561 182.378 22.5166C181.698 22.0713 181.174 21.4268 180.805 20.583C180.441 19.7334 180.26 18.7139 180.26 17.5244ZM184.742 21.4707C185.451 21.4707 185.996 21.2422 186.377 20.7852C186.764 20.3281 186.957 19.6748 186.957 18.8252C186.957 18.0869 186.775 17.5068 186.412 17.085C186.055 16.6631 185.516 16.4521 184.795 16.4521C184.35 16.4521 183.939 16.5488 183.564 16.7422C183.189 16.9297 182.894 17.1904 182.677 17.5244C182.46 17.8525 182.352 18.1895 182.352 18.5352C182.352 19.3613 182.574 20.0586 183.02 20.627C183.471 21.1895 184.045 21.4707 184.742 21.4707ZM194.867 14.9756C196.162 14.9756 197.188 15.3184 197.943 16.0039C198.699 16.6895 199.077 17.624 199.077 18.8076C199.077 20.1787 198.646 21.251 197.785 22.0244C196.93 22.792 195.711 23.1758 194.129 23.1758C192.693 23.1758 191.565 22.9443 190.745 22.4814V20.6094C191.22 20.8789 191.765 21.0869 192.38 21.2334C192.995 21.3799 193.566 21.4531 194.094 21.4531C195.025 21.4531 195.734 21.2451 196.221 20.8291C196.707 20.4131 196.95 19.8037 196.95 19.001C196.95 17.4658 195.972 16.6982 194.015 16.6982C193.739 16.6982 193.399 16.7275 192.995 16.7861C192.591 16.8389 192.236 16.9004 191.932 16.9707L191.009 16.4258L191.501 10.1504H198.181V11.9873H193.32L193.03 15.1689C193.235 15.1338 193.484 15.0928 193.777 15.0459C194.076 14.999 194.439 14.9756 194.867 14.9756Z" fill="white"/>
<g filter="url(#filter0_d)">
<path d="M21.4754 19.4713C20.3121 19.4713 19.17 19.2894 18.0876 18.9317C17.5573 18.7508 16.9053 18.9167 16.5816 19.2492L14.4452 20.8619C11.9677 19.5394 10.4415 18.0137 9.13706 15.5548L10.7023 13.4741C11.109 13.068 11.2549 12.4747 11.0801 11.9181C10.7209 10.83 10.5384 9.68839 10.5384 8.52465C10.5385 7.68395 9.85451 7 9.01386 7H5.5246C4.68395 7 4 7.68395 4 8.5246C4 18.1606 11.8394 26 21.4754 26C22.3161 26 23 25.316 23 24.4754V20.9958C23 20.1552 22.316 19.4713 21.4754 19.4713Z" fill="white"/>
<path d="M17.9262 19.4049L17.9262 19.4049L17.9307 19.4064C19.0647 19.7812 20.2599 19.9713 21.4754 19.9713C22.0399 19.9713 22.5 20.4314 22.5 20.9958V24.4754C22.5 25.0399 22.0399 25.5 21.4754 25.5C12.1155 25.5 4.5 17.8845 4.5 8.5246C4.5 7.96009 4.96009 7.5 5.5246 7.5H9.01386C9.57836 7.5 10.0384 7.96008 10.0384 8.52462V8.52465C10.0384 9.73954 10.2287 10.9328 10.604 12.071C10.7219 12.4503 10.622 12.8477 10.349 13.1203L10.324 13.1453L10.3028 13.1735L8.7375 15.2542L8.54638 15.5082L8.69537 15.7891C10.0469 18.3368 11.6453 19.9341 14.2098 21.303L14.4915 21.4534L14.7465 21.261L16.8828 19.6482L16.9132 19.6253L16.9398 19.598C17.0193 19.5164 17.1685 19.4302 17.3664 19.3858C17.5609 19.3422 17.7614 19.3487 17.9262 19.4049Z" stroke="black"/>
<path d="M17.9262 19.4049L17.9262 19.4049L17.9307 19.4064C19.0647 19.7812 20.2599 19.9713 21.4754 19.9713C22.0399 19.9713 22.5 20.4314 22.5 20.9958V24.4754C22.5 25.0399 22.0399 25.5 21.4754 25.5C12.1155 25.5 4.5 17.8845 4.5 8.5246C4.5 7.96009 4.96009 7.5 5.5246 7.5H9.01386C9.57836 7.5 10.0384 7.96008 10.0384 8.52462V8.52465C10.0384 9.73954 10.2287 10.9328 10.604 12.071C10.7219 12.4503 10.622 12.8477 10.349 13.1203L10.324 13.1453L10.3028 13.1735L8.7375 15.2542L8.54638 15.5082L8.69537 15.7891C10.0469 18.3368 11.6453 19.9341 14.2098 21.303L14.4915 21.4534L14.7465 21.261L16.8828 19.6482L16.9132 19.6253L16.9398 19.598C17.0193 19.5164 17.1685 19.4302 17.3664 19.3858C17.5609 19.3422 17.7614 19.3487 17.9262 19.4049Z" stroke="url(#paint0_linear)"/>
</g>
<defs>
<filter id="filter0_d" x="0" y="7" width="27" height="27" filterUnits="userSpaceOnUse" color-interpolation-filters="sRGB">
<feFlood flood-opacity="0" result="BackgroundImageFix"/>
<feColorMatrix in="SourceAlpha" type="matrix" values="0 0 0 0 0 0 0 0 0 0 0 0 0 0 0 0 0 0 127 0"/>
<feOffset dy="4"/>
<feGaussianBlur stdDeviation="2"/>
<feColorMatrix type="matrix" values="0 0 0 0 0 0 0 0 0 0 0 0 0 0 0 0 0 0 0.25 0"/>
<feBlend mode="normal" in2="BackgroundImageFix" result="effect1_dropShadow"/>
<feBlend mode="normal" in="SourceGraphic" in2="effect1_dropShadow" result="shape"/>
</filter>
<linearGradient id="paint0_linear" x1="13.5" y1="7" x2="13.5" y2="26" gradientUnits="userSpaceOnUse">
<stop stop-color="white"/>
<stop offset="1" stop-color="white" stop-opacity="0"/>
</linearGradient>
</defs>
</svg>
